<svg width="330" height="90" viewBox="0 0 330 90" fill="none" xmlns="http://www.w3.org/2000/svg">
<path d="M83.366 9.22583V24.1291H79.879V17.9937H74.4548V24.1291H70.9678V9.22583H74.4548V15.064H79.879V9.22583H83.366Z" fill="#335B60"/>
<path d="M110.088 21.4966H104.746L103.889 24.1291H100.239L105.419 9.22583H109.456L114.636 24.1291H110.945L110.088 21.4966ZM109.191 18.6943L107.417 13.2382L105.663 18.6943H109.191Z" fill="#335B60"/>
<path d="M134.993 21.3267H139.561V24.1291H131.506V9.22583H134.993V21.3267Z" fill="#335B60"/>
<path d="M165.837 9.22583V12.1343H160.005V15.2763H164.368V18.0998H160.005V24.1291H156.518V9.22583H165.837Z" fill="#335B60"/>
<path d="M193.873 14.0237C193.873 14.8871 193.682 15.6796 193.302 16.4015C192.921 17.1091 192.337 17.6823 191.548 18.1211C190.76 18.5598 189.781 18.7792 188.612 18.7792H186.45V24.1291H182.963V9.22583H188.612C189.754 9.22583 190.719 9.43105 191.507 9.84149C192.296 10.2519 192.887 10.8181 193.281 11.5399C193.676 12.2617 193.873 13.0896 193.873 14.0237ZM188.347 15.8919C189.013 15.8919 189.509 15.7292 189.835 15.4037C190.161 15.0781 190.325 14.6182 190.325 14.0237C190.325 13.4293 190.161 12.9693 189.835 12.6438C189.509 12.3183 189.013 12.1555 188.347 12.1555H186.45V15.8919H188.347Z" fill="#335B60"/>
<path d="M214.469 12.1343V15.1489H219.139V17.9512H214.469V21.2206H219.75V24.1291H210.982V9.22583H219.75V12.1343H214.469Z" fill="#335B60"/>
<path d="M250.114 24.1291H246.627L240.795 14.9366V24.1291H237.308V9.22583H240.795L246.627 18.4607V9.22583H250.114V24.1291Z" fill="#335B60"/>
<path d="M280.741 24.1291H277.254L271.422 14.9366V24.1291H267.935V9.22583H271.422L277.254 18.4607V9.22583H280.741V24.1291Z" fill="#335B60"/>
<path d="M310.839 9.22583L305.884 19.2038V24.1291H302.397V19.2038L297.441 9.22583H301.397L304.171 15.4674L306.924 9.22583H310.839Z" fill="#335B60"/>
<path fill-rule="evenodd" clip-rule="evenodd" d="M37.6128 30.6581C45.1381 30.6581 51.2386 24.5576 51.2386 17.0323C51.2386 9.50693 45.1381 3.40645 37.6128 3.40645C30.0875 3.40645 23.987 9.50693 23.987 17.0323C23.987 24.5576 30.0875 30.6581 37.6128 30.6581ZM37.6128 34.0645C47.0195 34.0645 54.6451 26.4389 54.6451 17.0323C54.6451 7.6256 47.0195 0 37.6128 0C28.2062 0 20.5806 7.6256 20.5806 17.0323C20.5806 26.4389 28.2062 34.0645 37.6128 34.0645Z" fill="#335B60"/>
<path fill-rule="evenodd" clip-rule="evenodd" d="M37.6128 26.9676C43.1 26.9676 47.5483 22.5194 47.5483 17.0322C47.5483 11.5449 43.1 7.09668 37.6128 7.09668V26.9676Z" fill="#335B60"/>
<path d="M0 66.7243C0 64.3798 0.435211 62.3215 1.30563 60.5495C2.20326 58.7776 3.41369 57.4145 4.93693 56.4603C6.46017 55.5062 8.16021 55.0291 10.0371 55.0291C11.6419 55.0291 13.0427 55.3562 14.2396 56.0105C15.4636 56.6648 16.402 57.5235 17.0548 58.5867V55.3562H24.0318V78.1741H17.0548V74.9436C16.3748 76.0068 15.4228 76.8655 14.1988 77.5198C13.0019 78.1741 11.6011 78.5012 9.99626 78.5012C8.14661 78.5012 6.46017 78.0241 4.93693 77.07C3.41369 76.0886 2.20326 74.7119 1.30563 72.9399C0.435211 71.1406 0 69.0688 0 66.7243ZM17.0548 66.7652C17.0548 65.0204 16.5652 63.6437 15.586 62.635C14.634 61.6264 13.4644 61.122 12.0771 61.122C10.6899 61.122 9.50665 61.6264 8.52742 62.635C7.5754 63.6165 7.09939 64.9795 7.09939 66.7243C7.09939 68.469 7.5754 69.8593 8.52742 70.8953C9.50665 71.9039 10.6899 72.4083 12.0771 72.4083C13.4644 72.4083 14.634 71.9039 15.586 70.8953C16.5652 69.8866 17.0548 68.5099 17.0548 66.7652Z" fill="#335B60"/>
<path d="M37.8924 66.7652C37.8924 64.3934 38.3684 62.3215 39.3204 60.5495C40.2997 58.7776 41.6461 57.4145 43.3597 56.4603C45.1006 55.5062 47.0862 55.0291 49.3167 55.0291C52.1728 55.0291 54.5528 55.7788 56.4569 57.2782C58.3881 58.7776 59.653 60.8903 60.2514 63.6165H52.8256C52.2 61.8717 50.9895 60.9994 49.1943 60.9994C47.9159 60.9994 46.8958 61.5037 46.1342 62.5124C45.3726 63.4938 44.9918 64.9114 44.9918 66.7652C44.9918 68.6189 45.3726 70.0502 46.1342 71.0588C46.8958 72.0403 47.9159 72.531 49.1943 72.531C50.9895 72.531 52.2 71.6586 52.8256 69.9139H60.2514C59.653 72.5855 58.3881 74.6846 56.4569 76.2113C54.5256 77.7379 52.1456 78.5012 49.3167 78.5012C47.0862 78.5012 45.1006 78.0241 43.3597 77.07C41.6461 76.1158 40.2997 74.7528 39.3204 72.9808C38.3684 71.2088 37.8924 69.1369 37.8924 66.7652Z" fill="#335B60"/>
<path d="M72.7964 66.7652C72.7964 64.3934 73.2725 62.3215 74.2245 60.5495C75.2037 58.7776 76.5501 57.4145 78.2638 56.4603C80.0046 55.5062 81.9903 55.0291 84.2207 55.0291C87.0768 55.0291 89.4569 55.7788 91.3609 57.2782C93.2922 58.7776 94.557 60.8903 95.1554 63.6165H87.7296C87.104 61.8717 85.8936 60.9994 84.0983 60.9994C82.8199 60.9994 81.7999 61.5037 81.0383 62.5124C80.2766 63.4938 79.8958 64.9114 79.8958 66.7652C79.8958 68.6189 80.2766 70.0502 81.0383 71.0588C81.7999 72.0403 82.8199 72.531 84.0983 72.531C85.8936 72.531 87.104 71.6586 87.7296 69.9139H95.1554C94.557 72.5855 93.2922 74.6846 91.3609 76.2113C89.4297 77.7379 87.0496 78.5012 84.2207 78.5012C81.9903 78.5012 80.0046 78.0241 78.2638 77.07C76.5501 76.1158 75.2037 74.7528 74.2245 72.9808C73.2725 71.2088 72.7964 69.1369 72.7964 66.7652Z" fill="#335B60"/>
<path d="M119.451 78.5012C117.221 78.5012 115.208 78.0241 113.413 77.07C111.645 76.1158 110.244 74.7528 109.21 72.9808C108.204 71.2088 107.7 69.1369 107.7 66.7652C107.7 64.4207 108.217 62.3624 109.251 60.5904C110.285 58.7912 111.699 57.4145 113.494 56.4603C115.289 55.5062 117.302 55.0291 119.533 55.0291C121.763 55.0291 123.776 55.5062 125.571 56.4603C127.367 57.4145 128.781 58.7912 129.815 60.5904C130.848 62.3624 131.365 64.4207 131.365 66.7652C131.365 69.1096 130.835 71.1815 129.774 72.9808C128.74 74.7528 127.312 76.1158 125.49 77.07C123.695 78.0241 121.682 78.5012 119.451 78.5012ZM119.451 72.4492C120.784 72.4492 121.913 71.9585 122.838 70.9771C123.79 69.9956 124.266 68.5917 124.266 66.7652C124.266 64.9386 123.803 63.5347 122.878 62.5533C121.981 61.5719 120.866 61.0811 119.533 61.0811C118.173 61.0811 117.044 61.5719 116.146 62.5533C115.249 63.5074 114.8 64.9114 114.8 66.7652C114.8 68.5917 115.235 69.9956 116.105 70.9771C117.003 71.9585 118.118 72.4492 119.451 72.4492Z" fill="#335B60"/>
<path d="M167.748 55.3562V78.1741H160.771V75.0663C160.064 76.075 159.098 76.8928 157.874 77.5198C156.677 78.1196 155.345 78.4194 153.876 78.4194C152.135 78.4194 150.598 78.0378 149.265 77.2745C147.932 76.4839 146.899 75.3525 146.164 73.8804C145.43 72.4083 145.063 70.6772 145.063 68.6871V55.3562H151.999V67.7466C151.999 69.2732 152.393 70.4591 153.182 71.3042C153.971 72.1493 155.032 72.5719 156.365 72.5719C157.725 72.5719 158.799 72.1493 159.588 71.3042C160.377 70.4591 160.771 69.2732 160.771 67.7466V55.3562H167.748Z" fill="#335B60"/>
<path d="M196.832 55.1109C199.498 55.1109 201.62 55.9833 203.197 57.728C204.802 59.4455 205.605 61.8172 205.605 64.8432V78.1741H198.668V65.7837C198.668 64.2571 198.274 63.0712 197.485 62.2261C196.696 61.381 195.636 60.9585 194.303 60.9585C192.97 60.9585 191.909 61.381 191.12 62.2261C190.331 63.0712 189.937 64.2571 189.937 65.7837V78.1741H182.96V55.3562H189.937V58.3823C190.644 57.3736 191.596 56.583 192.793 56.0105C193.99 55.4108 195.336 55.1109 196.832 55.1109Z" fill="#335B60"/>
<path d="M233.342 72.2447V78.1741H229.793C227.263 78.1741 225.291 77.5607 223.876 76.3339C222.462 75.0799 221.755 73.0489 221.755 70.241V61.1629H218.98V55.3562H221.755V49.7949H228.732V55.3562H233.301V61.1629H228.732V70.3228C228.732 71.0043 228.895 71.495 229.221 71.7949C229.548 72.0948 230.092 72.2447 230.853 72.2447H233.342Z" fill="#335B60"/>
<path d="M250.938 52.9845C249.714 52.9845 248.707 52.6301 247.918 51.9213C247.157 51.1852 246.776 50.2856 246.776 49.2224C246.776 48.132 247.157 47.2323 247.918 46.5235C248.707 45.7875 249.714 45.4194 250.938 45.4194C252.135 45.4194 253.114 45.7875 253.875 46.5235C254.664 47.2323 255.059 48.132 255.059 49.2224C255.059 50.2856 254.664 51.1852 253.875 51.9213C253.114 52.6301 252.135 52.9845 250.938 52.9845ZM254.406 55.3562V78.1741H247.429V55.3562H254.406Z" fill="#335B60"/>
<path d="M283.535 55.1109C286.2 55.1109 288.322 55.9833 289.9 57.728C291.504 59.4455 292.307 61.8172 292.307 64.8432V78.1741H285.371V65.7837C285.371 64.2571 284.976 63.0712 284.187 62.2261C283.399 61.381 282.338 60.9585 281.005 60.9585C279.672 60.9585 278.611 61.381 277.822 62.2261C277.034 63.0712 276.639 64.2571 276.639 65.7837V78.1741H269.662V55.3562H276.639V58.3823C277.346 57.3736 278.298 56.583 279.495 56.0105C280.692 55.4108 282.039 55.1109 283.535 55.1109Z" fill="#335B60"/>
<path d="M316.005 55.0291C317.61 55.0291 319.011 55.3562 320.208 56.0105C321.432 56.6648 322.37 57.5235 323.023 58.5867V55.3562H330V78.1332C330 80.2323 329.578 82.127 328.735 83.8172C327.919 85.5347 326.654 86.8978 324.941 87.9064C323.254 88.9151 321.146 89.4194 318.617 89.4194C315.244 89.4194 312.51 88.6152 310.415 87.0068C308.321 85.4256 307.124 83.272 306.825 80.5458H313.72C313.938 81.4182 314.455 82.0997 315.271 82.5904C316.087 83.1084 317.093 83.3674 318.29 83.3674C319.732 83.3674 320.874 82.9448 321.717 82.0997C322.588 81.2819 323.023 79.9597 323.023 78.1332V74.9027C322.343 75.9659 321.405 76.8383 320.208 77.5198C319.011 78.1741 317.61 78.5012 316.005 78.5012C314.128 78.5012 312.428 78.0241 310.905 77.07C309.382 76.0886 308.171 74.7119 307.274 72.9399C306.403 71.1406 305.968 69.0688 305.968 66.7243C305.968 64.3798 306.403 62.3215 307.274 60.5495C308.171 58.7776 309.382 57.4145 310.905 56.4603C312.428 55.5062 314.128 55.0291 316.005 55.0291ZM323.023 66.7652C323.023 65.0204 322.533 63.6437 321.554 62.635C320.602 61.6264 319.433 61.122 318.045 61.122C316.658 61.122 315.475 61.6264 314.496 62.635C313.544 63.6165 313.068 64.9795 313.068 66.7243C313.068 68.469 313.544 69.8593 314.496 70.8953C315.475 71.9039 316.658 72.4083 318.045 72.4083C319.433 72.4083 320.602 71.9039 321.554 70.8953C322.533 69.8866 323.023 68.5099 323.023 66.7652Z" fill="#335B60"/>
</svg>
