<svg width="197" height="56" viewBox="0 0 197 56" fill="none" xmlns="http://www.w3.org/2000/svg">
<path d="M50.04 5.576V14H47.988V10.532H44.796V14H42.744V5.576H44.796V8.876H47.988V5.576H50.04ZM65.7653 12.512H62.6213L62.1173 14H59.9693L63.0173 5.576H65.3933L68.4413 14H66.2693L65.7653 12.512ZM65.2373 10.928L64.1933 7.844L63.1613 10.928H65.2373ZM80.421 12.416H83.109V14H78.369V5.576H80.421V12.416ZM98.5718 5.576V7.22H95.1398V8.996H97.7078V10.592H95.1398V14H93.0878V5.576H98.5718ZM115.07 8.288C115.07 8.776 114.958 9.224 114.734 9.632C114.51 10.032 114.166 10.356 113.702 10.604C113.238 10.852 112.662 10.976 111.974 10.976H110.702V14H108.65V5.576H111.974C112.646 5.576 113.214 5.692 113.678 5.924C114.142 6.156 114.49 6.476 114.722 6.884C114.954 7.292 115.07 7.76 115.07 8.288ZM111.818 9.344C112.21 9.344 112.502 9.252 112.694 9.068C112.886 8.884 112.982 8.624 112.982 8.288C112.982 7.952 112.886 7.692 112.694 7.508C112.502 7.324 112.21 7.232 111.818 7.232H110.702V9.344H111.818ZM127.191 7.22V8.924H129.939V10.508H127.191V12.356H130.299V14H125.139V5.576H130.299V7.22H127.191ZM148.167 14H146.115L142.683 8.804V14H140.631V5.576H142.683L146.115 10.796V5.576H148.167V14ZM166.19 14H164.138L160.706 8.804V14H158.654V5.576H160.706L164.138 10.796V5.576H166.19V14ZM183.902 5.576L180.986 11.216V14H178.934V11.216L176.018 5.576H178.346L179.978 9.104L181.598 5.576H183.902Z" fill="white"/>
<circle cx="23" cy="10" r="9" stroke="white" stroke-width="2"/>
<path fill-rule="evenodd" clip-rule="evenodd" d="M23 16C26.3137 16 29 13.3137 29 10C29 6.68629 26.3137 4 23 4V16Z" fill="white"/>
<path d="M1.03919 39.28C1.03919 37.904 1.29519 36.696 1.80719 35.656C2.33519 34.616 3.04719 33.816 3.94319 33.256C4.83919 32.696 5.83919 32.416 6.94319 32.416C7.88719 32.416 8.71119 32.608 9.41519 32.992C10.1352 33.376 10.6872 33.88 11.0712 34.504V32.608H15.1752V46H11.0712V44.104C10.6712 44.728 10.1112 45.232 9.39119 45.616C8.68719 46 7.86319 46.192 6.91919 46.192C5.83119 46.192 4.83919 45.912 3.94319 45.352C3.04719 44.776 2.33519 43.968 1.80719 42.928C1.29519 41.872 1.03919 40.656 1.03919 39.28ZM11.0712 39.304C11.0712 38.28 10.7832 37.472 10.2072 36.88C9.64719 36.288 8.95919 35.992 8.14319 35.992C7.32719 35.992 6.63119 36.288 6.05519 36.88C5.49519 37.456 5.21519 38.256 5.21519 39.28C5.21519 40.304 5.49519 41.12 6.05519 41.728C6.63119 42.32 7.32719 42.616 8.14319 42.616C8.95919 42.616 9.64719 42.32 10.2072 41.728C10.7832 41.136 11.0712 40.328 11.0712 39.304ZM23.3283 39.304C23.3283 37.912 23.6083 36.696 24.1683 35.656C24.7443 34.616 25.5363 33.816 26.5443 33.256C27.5683 32.696 28.7363 32.416 30.0483 32.416C31.7283 32.416 33.1283 32.856 34.2483 33.736C35.3843 34.616 36.1283 35.856 36.4803 37.456H32.1123C31.7443 36.432 31.0323 35.92 29.9763 35.92C29.2243 35.92 28.6243 36.216 28.1763 36.808C27.7283 37.384 27.5043 38.216 27.5043 39.304C27.5043 40.392 27.7283 41.232 28.1763 41.824C28.6243 42.4 29.2243 42.688 29.9763 42.688C31.0323 42.688 31.7443 42.176 32.1123 41.152H36.4803C36.1283 42.72 35.3843 43.952 34.2483 44.848C33.1123 45.744 31.7123 46.192 30.0483 46.192C28.7363 46.192 27.5683 45.912 26.5443 45.352C25.5363 44.792 24.7443 43.992 24.1683 42.952C23.6083 41.912 23.3283 40.696 23.3283 39.304ZM43.8595 39.304C43.8595 37.912 44.1395 36.696 44.6995 35.656C45.2755 34.616 46.0675 33.816 47.0755 33.256C48.0995 32.696 49.2675 32.416 50.5795 32.416C52.2595 32.416 53.6595 32.856 54.7795 33.736C55.9155 34.616 56.6595 35.856 57.0115 37.456H52.6435C52.2755 36.432 51.5635 35.92 50.5075 35.92C49.7555 35.92 49.1555 36.216 48.7075 36.808C48.2595 37.384 48.0355 38.216 48.0355 39.304C48.0355 40.392 48.2595 41.232 48.7075 41.824C49.1555 42.4 49.7555 42.688 50.5075 42.688C51.5635 42.688 52.2755 42.176 52.6435 41.152H57.0115C56.6595 42.72 55.9155 43.952 54.7795 44.848C53.6435 45.744 52.2435 46.192 50.5795 46.192C49.2675 46.192 48.0995 45.912 47.0755 45.352C46.0675 44.792 45.2755 43.992 44.6995 42.952C44.1395 41.912 43.8595 40.696 43.8595 39.304ZM71.3028 46.192C69.9908 46.192 68.8068 45.912 67.7508 45.352C66.7108 44.792 65.8868 43.992 65.2788 42.952C64.6868 41.912 64.3908 40.696 64.3908 39.304C64.3908 37.928 64.6948 36.72 65.3027 35.68C65.9108 34.624 66.7428 33.816 67.7988 33.256C68.8548 32.696 70.0388 32.416 71.3508 32.416C72.6628 32.416 73.8468 32.696 74.9028 33.256C75.9588 33.816 76.7908 34.624 77.3988 35.68C78.0068 36.72 78.3108 37.928 78.3108 39.304C78.3108 40.68 77.9988 41.896 77.3748 42.952C76.7668 43.992 75.9268 44.792 74.8548 45.352C73.7988 45.912 72.6148 46.192 71.3028 46.192ZM71.3028 42.64C72.0868 42.64 72.7508 42.352 73.2948 41.776C73.8548 41.2 74.1348 40.376 74.1348 39.304C74.1348 38.232 73.8628 37.408 73.3188 36.832C72.7908 36.256 72.1348 35.968 71.3508 35.968C70.5508 35.968 69.8868 36.256 69.3588 36.832C68.8308 37.392 68.5668 38.216 68.5668 39.304C68.5668 40.376 68.8228 41.2 69.3348 41.776C69.8628 42.352 70.5188 42.64 71.3028 42.64ZM99.712 32.608V46H95.608V44.176C95.192 44.768 94.624 45.248 93.904 45.616C93.2 45.968 92.416 46.144 91.552 46.144C90.528 46.144 89.624 45.92 88.84 45.472C88.056 45.008 87.448 44.344 87.016 43.48C86.584 42.616 86.368 41.6 86.368 40.432V32.608H90.448V39.88C90.448 40.776 90.68 41.472 91.144 41.968C91.608 42.464 92.232 42.712 93.016 42.712C93.816 42.712 94.448 42.464 94.912 41.968C95.376 41.472 95.608 40.776 95.608 39.88V32.608H99.712ZM116.82 32.464C118.388 32.464 119.636 32.976 120.564 34C121.508 35.008 121.98 36.4 121.98 38.176V46H117.9V38.728C117.9 37.832 117.668 37.136 117.204 36.64C116.74 36.144 116.116 35.896 115.332 35.896C114.548 35.896 113.924 36.144 113.46 36.64C112.996 37.136 112.764 37.832 112.764 38.728V46H108.66V32.608H112.764V34.384C113.18 33.792 113.74 33.328 114.444 32.992C115.148 32.64 115.94 32.464 116.82 32.464ZM138.296 42.52V46H136.208C134.72 46 133.56 45.64 132.728 44.92C131.896 44.184 131.48 42.992 131.48 41.344V36.016H129.848V32.608H131.48V29.344H135.584V32.608H138.272V36.016H135.584V41.392C135.584 41.792 135.68 42.08 135.872 42.256C136.064 42.432 136.384 42.52 136.832 42.52H138.296ZM148.646 31.216C147.926 31.216 147.334 31.008 146.87 30.592C146.422 30.16 146.198 29.632 146.198 29.008C146.198 28.368 146.422 27.84 146.87 27.424C147.334 26.992 147.926 26.776 148.646 26.776C149.35 26.776 149.926 26.992 150.374 27.424C150.838 27.84 151.07 28.368 151.07 29.008C151.07 29.632 150.838 30.16 150.374 30.592C149.926 31.008 149.35 31.216 148.646 31.216ZM150.686 32.608V46H146.582V32.608H150.686ZM167.82 32.464C169.388 32.464 170.636 32.976 171.564 34C172.508 35.008 172.98 36.4 172.98 38.176V46H168.9V38.728C168.9 37.832 168.668 37.136 168.204 36.64C167.74 36.144 167.116 35.896 166.332 35.896C165.548 35.896 164.924 36.144 164.46 36.64C163.996 37.136 163.764 37.832 163.764 38.728V46H159.66V32.608H163.764V34.384C164.18 33.792 164.74 33.328 165.444 32.992C166.148 32.64 166.94 32.464 167.82 32.464ZM186.92 32.416C187.864 32.416 188.688 32.608 189.392 32.992C190.112 33.376 190.664 33.88 191.048 34.504V32.608H195.152V45.976C195.152 47.208 194.904 48.32 194.408 49.312C193.928 50.32 193.184 51.12 192.176 51.712C191.184 52.304 189.944 52.6 188.456 52.6C186.472 52.6 184.864 52.128 183.632 51.184C182.4 50.256 181.696 48.992 181.52 47.392H185.576C185.704 47.904 186.008 48.304 186.488 48.592C186.968 48.896 187.56 49.048 188.264 49.048C189.112 49.048 189.784 48.8 190.28 48.304C190.792 47.824 191.048 47.048 191.048 45.976V44.08C190.648 44.704 190.096 45.216 189.392 45.616C188.688 46 187.864 46.192 186.92 46.192C185.816 46.192 184.816 45.912 183.92 45.352C183.024 44.776 182.312 43.968 181.784 42.928C181.272 41.872 181.016 40.656 181.016 39.28C181.016 37.904 181.272 36.696 181.784 35.656C182.312 34.616 183.024 33.816 183.92 33.256C184.816 32.696 185.816 32.416 186.92 32.416ZM191.048 39.304C191.048 38.28 190.76 37.472 190.184 36.88C189.624 36.288 188.936 35.992 188.12 35.992C187.304 35.992 186.608 36.288 186.032 36.88C185.472 37.456 185.192 38.256 185.192 39.28C185.192 40.304 185.472 41.12 186.032 41.728C186.608 42.32 187.304 42.616 188.12 42.616C188.936 42.616 189.624 42.32 190.184 41.728C190.76 41.136 191.048 40.328 191.048 39.304Z" fill="white"/>
</svg>
